<svg width="19" height="20" viewBox="0 0 19 20" fill="none" xmlns="http://www.w3.org/2000/svg">
<path d="M17.5508 18.7803L11.0833 12.297C10.5466 12.7633 9.92043 13.1265 9.2048 13.3865C8.48917 13.6466 7.72881 13.7766 6.92373 13.7766C4.99153 13.7766 3.35452 13.1041 2.01271 11.759C0.670904 10.4139 0 8.79086 0 6.88983C0 4.98879 0.670904 3.36573 2.01271 2.02066C3.35452 0.675588 4.98258 0.00305176 6.89689 0.00305176C8.79331 0.00305176 10.408 0.675588 11.7408 2.02066C13.0737 3.36573 13.7401 4.98879 13.7401 6.88983C13.7401 7.661 13.6149 8.40528 13.3644 9.12265C13.1139 9.84002 12.7382 10.5126 12.2373 11.1403L18.7585 17.6235C18.9195 17.767 19 17.9508 19 18.175C19 18.3992 18.9105 18.6009 18.7316 18.7803C18.5706 18.9417 18.3738 19.0224 18.1412 19.0224C17.9087 19.0224 17.7119 18.9417 17.5508 18.7803ZM6.89689 12.1625C8.34604 12.1625 9.58051 11.6469 10.6003 10.6157C11.6201 9.58446 12.1299 8.34251 12.1299 6.88983C12.1299 5.43715 11.6201 4.1952 10.6003 3.16397C9.58051 2.13275 8.34604 1.61714 6.89689 1.61714C5.42985 1.61714 4.18197 2.13275 3.15325 3.16397C2.12453 4.1952 1.61017 5.43715 1.61017 6.88983C1.61017 8.34251 2.12453 9.58446 3.15325 10.6157C4.18197 11.6469 5.42985 12.1625 6.89689 12.1625Z" fill="#FAFAFA"/>
</svg>
