<svg width="18" height="17" viewBox="0 0 18 17" fill="none" xmlns="http://www.w3.org/2000/svg">
<path d="M3.16667 5.98718V12.6606M6.91667 5.98718V12.6606M11.0833 5.98718V12.6606M14.8333 5.98718V12.6606M1.5 13.9953L1.5 14.6627C1.5 15.1298 1.5 15.3634 1.59083 15.5419C1.67072 15.6988 1.79821 15.8265 1.95501 15.9064C2.13327 15.9974 2.36662 15.9974 2.83333 15.9974H15.1667C15.6334 15.9974 15.8667 15.9974 16.045 15.9064C16.2018 15.8265 16.3293 15.6988 16.4092 15.5419C16.5 15.3634 16.5 15.1299 16.5 14.6627V13.9953C16.5 13.5281 16.5 13.2945 16.4092 13.1161C16.3293 12.9591 16.2018 12.8315 16.045 12.7516C15.8667 12.6606 15.6334 12.6606 15.1667 12.6606H2.83333C2.36662 12.6606 2.13327 12.6606 1.95501 12.7516C1.79821 12.8315 1.67072 12.9591 1.59083 13.1161C1.5 13.2945 1.5 13.5281 1.5 13.9953ZM8.71076 1.04643L2.54409 2.4182C2.17154 2.50107 1.98527 2.54251 1.84622 2.64278C1.72358 2.73123 1.62727 2.85141 1.56762 2.99044C1.5 3.14806 1.5 3.33908 1.5 3.72111L1.5 4.65249C1.5 5.11967 1.5 5.35327 1.59083 5.53171C1.67072 5.68867 1.79821 5.81628 1.95501 5.89626C2.13327 5.98718 2.36662 5.98718 2.83333 5.98718H15.1667C15.6334 5.98718 15.8667 5.98718 16.045 5.89626C16.2018 5.81628 16.3293 5.68867 16.4092 5.53171C16.5 5.35327 16.5 5.11968 16.5 4.65249V3.72111C16.5 3.33908 16.5 3.14807 16.4324 2.99044C16.3727 2.85141 16.2764 2.73123 16.1538 2.64278C16.0147 2.54251 15.8285 2.50107 15.4559 2.4182L9.28924 1.04643C9.1813 1.02242 9.12733 1.01042 9.0728 1.00563C9.02436 1.00138 8.97564 1.00138 8.9272 1.00563C8.87267 1.01042 8.8187 1.02242 8.71076 1.04643Z" stroke="#FAFAFA" stroke-width="1.3" stroke-linecap="round" stroke-linejoin="round"/>
</svg>
