<svg fill="#fff" height="800px" width="800px" version="1.1" id="Capa_1" xmlns="http://www.w3.org/2000/svg" xmlns:xlink="http://www.w3.org/1999/xlink" 
	 viewBox="0 0 397.696 397.696" xml:space="preserve">
<path d="M393.303,198.002L230.667,35.366c-5.858-5.858-15.355-5.858-21.213,0c-5.857,5.858-5.857,15.355,0,21.213l3.536,3.536
	l-21.214,21.213l-21.211-21.212l3.535-3.536c5.858-5.857,5.858-15.355,0-21.213c-5.857-5.858-15.354-5.858-21.213,0L4.393,183.859
	c-5.857,5.857-5.857,15.355,0,21.213c2.93,2.929,6.768,4.394,10.607,4.394c2.211,0,4.416-0.502,6.454-1.475l145.57,145.571
	c0.001,0.002,0.003,0.004,0.005,0.006c8.773,8.772,20.297,13.156,31.82,13.156c11.522,0,23.046-4.387,31.816-13.158
	c7.914-7.912,12.513-18.255,13.111-29.344c10.675-0.59,21.179-4.946,29.315-13.082c8.144-8.144,12.501-18.659,13.085-29.343
	c10.683-0.584,21.199-4.942,29.344-13.083c0.016-0.016,0.03-0.033,0.047-0.049l52.984-52.986l3.537,3.537
	c2.928,2.929,6.768,4.394,10.605,4.394c3.84,0,7.678-1.464,10.607-4.394C399.161,213.357,399.161,203.859,393.303,198.002z
	 M251.879,289.927c-5.844,5.846-15.357,5.848-21.207,0.003c-0.002-0.001-0.003-0.003-0.004-0.004l-21.215-21.214
	c-5.859-5.857-15.355-5.857-21.214,0.001c-5.857,5.858-5.857,15.355,0.001,21.213l21.205,21.204c0.003,0.004,0.006,0.007,0.009,0.01
	c0.003,0.003,0.007,0.006,0.011,0.01c2.826,2.832,4.384,6.594,4.384,10.596c0,4.006-1.562,7.773-4.396,10.608
	c-5.848,5.848-15.363,5.847-21.213-0.002L43.286,187.395L149.352,81.329l21.211,21.212l-31.818,31.819
	c-0.004,0.003-0.006,0.007-0.01,0.01c-17.534,17.546-17.532,46.087,0.01,63.63c8.771,8.773,20.295,13.159,31.818,13.159
	c11.518-0.001,23.036-4.382,31.807-13.146c0.005-0.004,0.01-0.007,0.014-0.011l31.82-31.82l60.104,60.104
	c0.002,0.002,0.006,0.005,0.008,0.007c5.835,5.842,5.838,15.337,0.012,21.185l-0.019,0.02c-0.003,0.003-0.006,0.007-0.009,0.01
	c-5.849,5.836-15.352,5.835-21.198-0.002c-0.004-0.004-0.008-0.009-0.012-0.013l-21.209-21.207
	c-5.857-5.858-15.355-5.857-21.213,0.001c-5.858,5.858-5.858,15.355,0.001,21.213l21.194,21.192
	c0.007,0.007,0.012,0.014,0.018,0.021C257.729,274.561,257.729,284.078,251.879,289.927z M324.303,217.503
	c-2.143-4.498-5.065-8.713-8.783-12.431c-0.004-0.003-0.008-0.006-0.011-0.009l-70.698-70.7c-5.857-5.858-15.355-5.857-21.213,0
	l-42.428,42.427c-0.001,0.001-0.002,0.001-0.002,0.002c-5.851,5.847-15.365,5.845-21.211-0.001
	c-5.848-5.849-5.848-15.365-0.002-21.213c0.001-0.001,0.002-0.001,0.003-0.002l42.423-42.424c0,0,0.001-0.001,0.002-0.002
	c0-0.001,0-0.001,0.001-0.002l31.817-31.819L347.34,194.465L324.303,217.503z"/>
</svg>