<svg width="18" height="18" viewBox="0 0 18 18" fill="none" xmlns="http://www.w3.org/2000/svg">
<path d="M8.99996 13.1667C9.1944 13.1667 9.3576 13.1007 9.48954 12.9687C9.62149 12.8368 9.68746 12.6736 9.68746 12.4792C9.68746 12.2847 9.62149 12.1215 9.48954 11.9896C9.3576 11.8576 9.1944 11.7917 8.99996 11.7917C8.80552 11.7917 8.64232 11.8576 8.51038 11.9896C8.37843 12.1215 8.31246 12.2847 8.31246 12.4792C8.31246 12.6736 8.37843 12.8368 8.51038 12.9687C8.64232 13.1007 8.80552 13.1667 8.99996 13.1667ZM8.43746 9.97916H9.68746V4.70832H8.43746V9.97916ZM8.99996 17.3333C7.86107 17.3333 6.78468 17.1146 5.77079 16.6771C4.7569 16.2396 3.87149 15.6424 3.11454 14.8854C2.3576 14.1285 1.76038 13.243 1.32288 12.2292C0.885376 11.2153 0.666626 10.1319 0.666626 8.97916C0.666626 7.84027 0.885376 6.76388 1.32288 5.74999C1.76038 4.7361 2.3576 3.85416 3.11454 3.10416C3.87149 2.35416 4.7569 1.76041 5.77079 1.32291C6.78468 0.885406 7.86801 0.666656 9.02079 0.666656C10.1597 0.666656 11.2361 0.885406 12.25 1.32291C13.2638 1.76041 14.1458 2.35416 14.8958 3.10416C15.6458 3.85416 16.2395 4.7361 16.677 5.74999C17.1145 6.76388 17.3333 7.84721 17.3333 8.99999C17.3333 10.1389 17.1145 11.2153 16.677 12.2292C16.2395 13.243 15.6458 14.1285 14.8958 14.8854C14.1458 15.6424 13.2638 16.2396 12.25 16.6771C11.2361 17.1146 10.1527 17.3333 8.99996 17.3333ZM9.02079 16.0833C10.9791 16.0833 12.6458 15.3924 14.0208 14.0104C15.3958 12.6285 16.0833 10.9514 16.0833 8.97916C16.0833 7.02082 15.3958 5.35416 14.0208 3.97916C12.6458 2.60416 10.9722 1.91666 8.99996 1.91666C7.04163 1.91666 5.37149 2.60416 3.98954 3.97916C2.6076 5.35416 1.91663 7.02777 1.91663 8.99999C1.91663 10.9583 2.6076 12.6285 3.98954 14.0104C5.37149 15.3924 7.04857 16.0833 9.02079 16.0833Z" fill="#FAFAFA"/>
</svg>
