<svg width="16" height="16" viewBox="0 0 16 16" fill="none" xmlns="http://www.w3.org/2000/svg">
<path d="M7.98681 4.65513C7.8989 4.65513 7.80659 4.67231 7.70989 4.70667C7.61319 4.74102 7.52088 4.80114 7.43297 4.88703L2.23736 9.96297C2.07912 10.1176 2 10.3065 2 10.5298C2 10.7531 2.07912 10.9421 2.23736 11.0967C2.3956 11.2513 2.58022 11.3286 2.79121 11.3286C3.0022 11.3286 3.18681 11.2513 3.34505 11.0967L7.98681 6.56183L12.6286 11.0967C12.7868 11.2513 12.9758 11.3286 13.1956 11.3286C13.4154 11.3286 13.6044 11.2513 13.7626 11.0967C13.9209 10.9421 14 10.7574 14 10.5427C14 10.328 13.9209 10.1433 13.7626 9.98874L8.54066 4.88703C8.45275 4.80114 8.36483 4.74102 8.27692 4.70667C8.18901 4.67231 8.09231 4.65513 7.98681 4.65513Z" fill="#FAFAFA"/>
</svg>
