<svg width="10" height="16" viewBox="0 0 10 16" fill="none" xmlns="http://www.w3.org/2000/svg">
<path d="M0.833481 8.01648C0.833481 8.12637 0.854953 8.24176 0.897897 8.36264C0.940841 8.48352 1.01599 8.5989 1.12335 8.70879L7.46828 15.2033C7.66153 15.4011 7.89772 15.5 8.17685 15.5C8.45599 15.5 8.69218 15.4011 8.88542 15.2033C9.07867 15.0055 9.17529 14.7747 9.17529 14.511C9.17529 14.2473 9.07867 14.0165 8.88542 13.8187L3.21686 8.01648L8.88542 2.21429C9.07867 2.01649 9.17529 1.78022 9.17529 1.5055C9.17529 1.23077 9.07867 0.994507 8.88542 0.796704C8.69218 0.598902 8.46135 0.5 8.19296 0.5C7.92456 0.5 7.69374 0.598902 7.50049 0.796704L1.12335 7.32418C1.01599 7.43407 0.940841 7.54396 0.897897 7.65385C0.854953 7.76374 0.833481 7.88462 0.833481 8.01648Z" fill="#FAFAFA"/>
</svg>
