<svg width="16" height="16" viewBox="0 0 16 16" fill="none" xmlns="http://www.w3.org/2000/svg">
<g id="icon/arrow-down">
<path id="Vector" d="M7.98681 11.3286C7.8989 11.3286 7.80659 11.3114 7.70989 11.277C7.61319 11.2427 7.52088 11.1826 7.43297 11.0967L2.23736 6.02073C2.07912 5.86613 2 5.67718 2 5.45387C2 5.23057 2.07912 5.04161 2.23736 4.88702C2.3956 4.73242 2.58022 4.65512 2.79121 4.65512C3.0022 4.65512 3.18681 4.73242 3.34505 4.88702L7.98681 9.42187L12.6286 4.88702C12.7868 4.73242 12.9758 4.65512 13.1956 4.65512C13.4154 4.65512 13.6044 4.73242 13.7626 4.88702C13.9209 5.04161 14 5.22627 14 5.44099C14 5.65571 13.9209 5.84037 13.7626 5.99496L8.54066 11.0967C8.45275 11.1826 8.36483 11.2427 8.27692 11.277C8.18901 11.3114 8.09231 11.3286 7.98681 11.3286Z" fill="#FAFAFA"/>
</g>
</svg>
