<svg width="20" height="20" viewBox="0 0 20 20" fill="none" xmlns="http://www.w3.org/2000/svg">
<path d="M3 6.98474V14.9929M7.5 6.98474V14.9929M12.5 6.98474V14.9929M17 6.98474V14.9929M1 16.5945L1 17.3953C1 17.9559 1 18.2363 1.10899 18.4504C1.20487 18.6387 1.35785 18.7919 1.54601 18.8878C1.75992 18.9969 2.03995 18.9969 2.6 18.9969H17.4C17.9601 18.9969 18.2401 18.9969 18.454 18.8878C18.6422 18.7919 18.7951 18.6387 18.891 18.4504C19 18.2363 19 17.9559 19 17.3953V16.5945C19 16.0339 19 15.7536 18.891 15.5394C18.7951 15.3511 18.6422 15.198 18.454 15.102C18.2401 14.9929 17.9601 14.9929 17.4 14.9929H2.6C2.03995 14.9929 1.75992 14.9929 1.54601 15.102C1.35785 15.198 1.20487 15.3511 1.10899 15.5394C1 15.7536 1 16.0339 1 16.5945ZM9.65291 1.05584L2.25291 2.70196C1.80585 2.80141 1.58232 2.85113 1.41546 2.97146C1.26829 3.0776 1.15273 3.22181 1.08115 3.38865C1 3.5778 1 3.80702 1 4.26545L1 5.38311C1 5.94373 1 6.22404 1.10899 6.43817C1.20487 6.62653 1.35785 6.77966 1.54601 6.87563C1.75992 6.98474 2.03995 6.98474 2.6 6.98474H17.4C17.9601 6.98474 18.2401 6.98474 18.454 6.87563C18.6422 6.77966 18.7951 6.62653 18.891 6.43817C19 6.22404 19 5.94373 19 5.38311V4.26545C19 3.80702 19 3.5778 18.9188 3.38865C18.8473 3.22181 18.7317 3.0776 18.5845 2.97146C18.4177 2.85113 18.1942 2.80141 17.7471 2.70196L10.3471 1.05584C10.2176 1.02703 10.1528 1.01262 10.0874 1.00688C10.0292 1.00178 9.97077 1.00178 9.91264 1.00688C9.8472 1.01262 9.78244 1.02703 9.65291 1.05584Z" stroke="#FAFAFA" stroke-width="1.3" stroke-linecap="round" stroke-linejoin="round"/>
</svg>
