<svg width="16" height="15" viewBox="0 0 16 15" fill="none" xmlns="http://www.w3.org/2000/svg">
<path d="M1.75 6.875C1.40278 6.875 1.10764 6.75347 0.864583 6.51042C0.621528 6.26736 0.5 5.97222 0.5 5.625V1.25C0.5 0.902778 0.621528 0.607639 0.864583 0.364583C1.10764 0.121528 1.40278 0 1.75 0H6.125C6.47222 0 6.76736 0.121528 7.01042 0.364583C7.25347 0.607639 7.375 0.902778 7.375 1.25V5.625C7.375 5.97222 7.25347 6.26736 7.01042 6.51042C6.76736 6.75347 6.47222 6.875 6.125 6.875H1.75ZM1.75 15C1.40278 15 1.10764 14.8785 0.864583 14.6354C0.621528 14.3924 0.5 14.0972 0.5 13.75V9.375C0.5 9.02778 0.621528 8.73264 0.864583 8.48958C1.10764 8.24653 1.40278 8.125 1.75 8.125H6.125C6.47222 8.125 6.76736 8.24653 7.01042 8.48958C7.25347 8.73264 7.375 9.02778 7.375 9.375V13.75C7.375 14.0972 7.25347 14.3924 7.01042 14.6354C6.76736 14.8785 6.47222 15 6.125 15H1.75ZM9.875 6.875C9.52778 6.875 9.23264 6.75347 8.98958 6.51042C8.74653 6.26736 8.625 5.97222 8.625 5.625V1.25C8.625 0.902778 8.74653 0.607639 8.98958 0.364583C9.23264 0.121528 9.52778 0 9.875 0H14.25C14.5972 0 14.8924 0.121528 15.1354 0.364583C15.3785 0.607639 15.5 0.902778 15.5 1.25V5.625C15.5 5.97222 15.3785 6.26736 15.1354 6.51042C14.8924 6.75347 14.5972 6.875 14.25 6.875H9.875ZM9.875 15C9.52778 15 9.23264 14.8785 8.98958 14.6354C8.74653 14.3924 8.625 14.0972 8.625 13.75V9.375C8.625 9.02778 8.74653 8.73264 8.98958 8.48958C9.23264 8.24653 9.52778 8.125 9.875 8.125H14.25C14.5972 8.125 14.8924 8.24653 15.1354 8.48958C15.3785 8.73264 15.5 9.02778 15.5 9.375V13.75C15.5 14.0972 15.3785 14.3924 15.1354 14.6354C14.8924 14.8785 14.5972 15 14.25 15H9.875ZM1.75 5.625H6.125V1.25H1.75V5.625ZM9.875 5.625H14.25V1.25H9.875V5.625ZM9.875 13.75H14.25V9.375H9.875V13.75ZM1.75 13.75H6.125V9.375H1.75V13.75Z" fill="#FAFAFA"/>
</svg>
