<svg width="16" height="16" viewBox="0 0 16 16" fill="none" xmlns="http://www.w3.org/2000/svg">
<path d="M8 9.2069L1.96552 15.2414C1.7931 15.4138 1.59195 15.5 1.36207 15.5C1.13218 15.5 0.931034 15.4138 0.758621 15.2414C0.586207 15.069 0.5 14.8678 0.5 14.6379C0.5 14.408 0.586207 14.2069 0.758621 14.0345L6.7931 8L0.758621 1.96552C0.586207 1.7931 0.5 1.59195 0.5 1.36207C0.5 1.13218 0.586207 0.931034 0.758621 0.758621C0.931034 0.586207 1.13218 0.5 1.36207 0.5C1.59195 0.5 1.7931 0.586207 1.96552 0.758621L8 6.7931L14.0345 0.758621C14.2069 0.586207 14.408 0.5 14.6379 0.5C14.8678 0.5 15.069 0.586207 15.2414 0.758621C15.4138 0.931034 15.5 1.13218 15.5 1.36207C15.5 1.59195 15.4138 1.7931 15.2414 1.96552L9.2069 8L15.2414 14.0345C15.4138 14.2069 15.5 14.408 15.5 14.6379C15.5 14.8678 15.4138 15.069 15.2414 15.2414C15.069 15.4138 14.8678 15.5 14.6379 15.5C14.408 15.5 14.2069 15.4138 14.0345 15.2414L8 9.2069Z" fill="#E11D48"/>
</svg>
