<svg width="16" height="10" viewBox="0 0 16 10" fill="none" xmlns="http://www.w3.org/2000/svg">
<path d="M7.98352 9.16115C7.87363 9.16115 7.75824 9.13968 7.63736 9.09673C7.51648 9.05379 7.4011 8.97864 7.29121 8.87128L0.796704 2.52635C0.598902 2.3331 0.5 2.09691 0.5 1.81778C0.5 1.53864 0.598902 1.30245 0.796704 1.10921C0.994506 0.91596 1.22527 0.819336 1.48901 0.819336C1.75275 0.819336 1.98352 0.91596 2.18132 1.10921L7.98352 6.77777L13.7857 1.10921C13.9835 0.91596 14.2198 0.819336 14.4945 0.819336C14.7692 0.819336 15.0055 0.91596 15.2033 1.10921C15.4011 1.30245 15.5 1.53327 15.5 1.80167C15.5 2.07007 15.4011 2.30089 15.2033 2.49414L8.67582 8.87128C8.56593 8.97864 8.45604 9.05379 8.34615 9.09673C8.23626 9.13968 8.11538 9.16115 7.98352 9.16115Z" fill="#FAFAFA"/>
</svg>
