<svg width="29" height="29" viewBox="0 0 29 29" fill="none" xmlns="http://www.w3.org/2000/svg">
<path d="M6.58217 20.2555L4.83241 21.3414C4.73965 21.3989 4.63263 21.4294 4.52346 21.429C4.47874 21.4347 4.43382 21.4347 4.3893 21.429C4.23874 21.3929 4.10751 21.3012 4.02177 21.1722L0.755617 15.9876C0.673208 15.856 0.646843 15.6971 0.681799 15.546C0.716755 15.3949 0.81049 15.2637 0.942112 15.182L2.69187 14.0961V14.0959C2.82369 14.0124 2.98324 13.9851 3.13517 14.0201C3.28789 14.0547 3.42048 14.1495 3.5027 14.2828L3.8468 14.82L6.33726 13.2494L5.99316 12.7123C5.91095 12.5807 5.88439 12.4218 5.91934 12.2707C5.9543 12.1193 6.04803 11.9884 6.17985 11.9065L17.8158 4.63757C17.9312 4.08904 18.2692 3.61322 18.7488 3.32391L23.3041 0.492321C23.4361 0.408067 23.5962 0.380503 23.7485 0.415694C23.9011 0.450686 24.0331 0.545693 24.1149 0.679206L28.0343 6.89718C28.1178 7.02893 28.1452 7.18864 28.11 7.34093C28.0755 7.49067 27.9833 7.62067 27.8534 7.70277L23.2691 10.5578C22.9436 10.7607 22.5676 10.8679 22.1843 10.8673C22.0232 10.8651 21.8629 10.8456 21.706 10.8088L17.6232 13.5705C17.6958 13.8037 17.739 14.0449 17.7515 14.2887L21.7061 27.2616H25.9695C26.2917 27.2616 26.5528 27.523 26.5528 27.8453C26.5528 28.1679 26.2917 28.4292 25.9695 28.4292H3.71856C3.39634 28.4292 3.13524 28.1679 3.13524 27.8453C3.13524 27.523 3.39634 27.2616 3.71856 27.2616H7.91214L10.8867 17.5466L10.0702 18.0544C9.97729 18.1121 9.87027 18.1424 9.76111 18.142C9.5586 18.1457 9.36878 18.0441 9.25943 17.8734L8.92119 17.3303L6.42483 18.8834L6.76307 19.4265C6.85349 19.559 6.88532 19.7231 6.85114 19.88C6.81697 20.0368 6.71971 20.1727 6.58223 20.2556L6.58217 20.2555ZM2.81433 15.3745L2.06188 15.8415L4.70977 20.0393L5.45637 19.5723L5.11814 19.0293L3.15845 15.9173L2.81433 15.3745ZM23.415 1.79404L20.9302 3.32368L24.2315 8.57831L26.7279 7.02539L23.415 1.79404ZM22.645 9.56538L23.2283 9.19747L19.9446 3.98939L19.3613 4.35729C19.1635 4.47693 19.024 4.67359 18.9764 4.90017C18.9227 5.12341 18.9604 5.35897 19.0814 5.55405L21.4143 9.31401V9.3142C21.5379 9.50929 21.7336 9.6477 21.9588 9.69911C22.1838 9.75033 22.4201 9.71064 22.616 9.58847L22.645 9.56538ZM14.8061 16.1687C15.2703 16.1687 15.7154 15.9842 16.0434 15.6557C16.3715 15.3271 16.5559 14.8816 16.5559 14.4171C16.5559 13.9527 16.3715 13.5071 16.0434 13.1786C15.7153 12.8501 15.2703 12.6656 14.8061 12.6656C14.3421 12.6656 13.897 12.8501 13.569 13.1786C13.2407 13.5072 13.0563 13.9527 13.0563 14.4171C13.0563 14.8816 13.2407 15.3271 13.569 15.6557C13.897 15.9842 14.3421 16.1687 14.8061 16.1687ZM17.0984 16.2213C16.6732 16.7638 16.0698 17.1381 15.3953 17.2781V27.2618H20.4986L17.0984 16.2213ZM9.14297 27.262H14.2233V17.2782C13.6367 17.1584 13.1012 16.8606 12.6893 16.4257L12.4036 16.6009L9.14297 27.262ZM9.94206 16.7527L11.4061 15.8361L11.8844 14.283H11.8842C11.9154 13.4919 12.2663 12.7473 12.8567 12.2203C13.4469 11.693 14.2256 11.4286 15.0144 11.4872C15.8031 11.5459 16.5343 11.9227 17.0401 12.5315L20.5922 10.1436L20.1897 9.50146L18.0783 6.14441L17.9441 5.93426L7.30008 12.5606L7.64417 13.1037L9.60385 16.2156L9.94206 16.7527ZM8.29738 16.3325L6.95597 14.213L4.46551 15.7661L5.80087 17.9203L8.29738 16.3325Z" fill="#FAFAFA"/>
</svg>
