<svg width="30" height="30" viewBox="0 0 30 30" fill="none" xmlns="http://www.w3.org/2000/svg">
<path d="M16.9883 10.2574C16.2442 10.7879 15.3335 11.1 14.35 11.1C11.8371 11.1 9.8 9.0629 9.8 6.55C9.8 4.0371 11.8371 2 14.35 2C15.9789 2 17.4079 2.85594 18.2117 4.14258M7.2 25.5133H10.5934C11.0358 25.5133 11.4755 25.5659 11.9045 25.6712L15.49 26.5425C16.2679 26.7321 17.0784 26.7505 17.8645 26.5978L21.8289 25.8265C22.8761 25.6225 23.8395 25.1211 24.5944 24.3867L27.3993 21.6582C28.2002 20.8804 28.2002 19.6182 27.3993 18.839C26.6781 18.1375 25.5361 18.0585 24.7203 18.6534L21.4514 21.0383C20.9832 21.3805 20.4136 21.5648 19.8277 21.5648H16.6712L18.6804 21.5647C19.8129 21.5647 20.7302 20.6723 20.7302 19.5707V19.1719C20.7302 18.2571 20.0902 17.4595 19.1783 17.2384L16.0772 16.4843C15.5725 16.3619 15.0556 16.3 14.5361 16.3C13.2818 16.3 11.0115 17.3385 11.0115 17.3385L7.2 18.9323M25.4 7.85C25.4 10.3629 23.3629 12.4 20.85 12.4C18.3371 12.4 16.3 10.3629 16.3 7.85C16.3 5.3371 18.3371 3.3 20.85 3.3C23.3629 3.3 25.4 5.3371 25.4 7.85ZM2 18.38L2 25.92C2 26.6481 2 27.0121 2.14169 27.2902C2.26633 27.5348 2.4652 27.7337 2.70981 27.8583C2.9879 28 3.35193 28 4.08 28H5.12C5.84807 28 6.2121 28 6.49019 27.8583C6.7348 27.7337 6.93367 27.5348 7.05831 27.2902C7.2 27.0121 7.2 26.6481 7.2 25.92V18.38C7.2 17.6519 7.2 17.2879 7.05831 17.0098C6.93367 16.7652 6.7348 16.5663 6.49019 16.4417C6.2121 16.3 5.84807 16.3 5.12 16.3L4.08 16.3C3.35193 16.3 2.9879 16.3 2.70981 16.4417C2.4652 16.5663 2.26633 16.7652 2.14169 17.0098C2 17.2879 2 17.6519 2 18.38Z" stroke="#1E1B21" stroke-width="2.5" stroke-linecap="round" stroke-linejoin="round"/>
</svg>
