<svg width="26" height="26" viewBox="0 0 26 26" fill="none" xmlns="http://www.w3.org/2000/svg">
<path d="M22.0443 23.97C22.7288 23.97 23.071 23.97 23.3325 23.8368C23.5625 23.7196 23.7494 23.5326 23.8666 23.3027C23.9998 23.0412 23.9998 22.699 23.9998 22.0145V21.0367C23.9998 20.3522 23.9998 20.0099 23.8666 19.7485C23.7494 19.5185 23.5625 19.3315 23.3325 19.2144C23.071 19.0812 22.7288 19.0812 22.0443 19.0812H3.95554C3.27104 19.0812 2.92879 19.0812 2.66734 19.2144C2.43737 19.3315 2.25039 19.5185 2.13321 19.7485C2 20.0099 2 20.3522 2 21.0367L2 22.0145C2 22.699 2 23.0412 2.13321 23.3027C2.25039 23.5326 2.43737 23.7196 2.66734 23.8368C2.92878 23.97 3.27104 23.97 3.95554 23.97H22.0443Z" fill="#FFCF27"/>
<path d="M22.0443 9.30346C22.7288 9.30346 23.071 9.30346 23.3325 9.17024C23.5625 9.05307 23.7494 8.86609 23.8666 8.63612C23.9998 8.37467 23.9998 8.03242 23.9998 7.34792V5.98329C23.9998 5.42356 23.9998 5.14369 23.9006 4.91274C23.8132 4.70904 23.6719 4.53296 23.492 4.40337C23.2881 4.25645 23.0149 4.19574 22.4685 4.07432L13.4241 2.06446C13.2658 2.02928 13.1867 2.01169 13.1067 2.00467C13.0356 1.99844 12.9642 1.99844 12.8931 2.00467C12.8132 2.01169 12.734 2.02928 12.5757 2.06446L3.53132 4.07432C2.98492 4.19574 2.71172 4.25645 2.50779 4.40337C2.32791 4.53296 2.18666 4.70903 2.09918 4.91274C2 5.14369 2 5.42356 2 5.98329L2 7.34792C2 8.03242 2 8.37467 2.13321 8.63612C2.25039 8.86609 2.43737 9.05307 2.66734 9.17024C2.92878 9.30346 3.27104 9.30346 3.95554 9.30346H22.0443Z" fill="#FFCF27"/>
<path d="M4.44442 9.30346V19.0812M9.94438 9.30346V19.0812M16.0554 9.30346V19.0812M21.5554 9.30346V19.0812M2 21.0367L2 22.0145C2 22.699 2 23.0412 2.13321 23.3027C2.25039 23.5326 2.43737 23.7196 2.66734 23.8368C2.92878 23.97 3.27104 23.97 3.95554 23.97H22.0443C22.7288 23.97 23.071 23.97 23.3325 23.8368C23.5625 23.7196 23.7494 23.5326 23.8666 23.3027C23.9998 23.0412 23.9998 22.699 23.9998 22.0145V21.0367C23.9998 20.3522 23.9998 20.0099 23.8666 19.7485C23.7494 19.5185 23.5625 19.3315 23.3325 19.2144C23.071 19.0812 22.7288 19.0812 22.0443 19.0812H3.95554C3.27104 19.0812 2.92879 19.0812 2.66734 19.2144C2.43737 19.3315 2.25039 19.5185 2.13321 19.7485C2 20.0099 2 20.3522 2 21.0367ZM12.5757 2.06446L3.53132 4.07432C2.98492 4.19574 2.71172 4.25645 2.50779 4.40337C2.32791 4.53296 2.18666 4.70903 2.09918 4.91274C2 5.14369 2 5.42356 2 5.98329L2 7.34792C2 8.03242 2 8.37467 2.13321 8.63612C2.25039 8.86609 2.43737 9.05307 2.66734 9.17024C2.92878 9.30346 3.27104 9.30346 3.95554 9.30346H22.0443C22.7288 9.30346 23.071 9.30346 23.3325 9.17024C23.5625 9.05307 23.7494 8.86609 23.8666 8.63612C23.9998 8.37467 23.9998 8.03242 23.9998 7.34792V5.98329C23.9998 5.42356 23.9998 5.14369 23.9006 4.91274C23.8132 4.70904 23.6719 4.53296 23.492 4.40337C23.2881 4.25645 23.0149 4.19574 22.4685 4.07432L13.4241 2.06446C13.2658 2.02928 13.1867 2.01169 13.1067 2.00467C13.0356 1.99844 12.9642 1.99844 12.8931 2.00467C12.8132 2.01169 12.734 2.02928 12.5757 2.06446Z" stroke="#1E1B21" stroke-width="2.5" stroke-linecap="round" stroke-linejoin="round"/>
</svg>