<svg width="32" height="32" viewBox="0 0 32 32" fill="none" xmlns="http://www.w3.org/2000/svg">
<rect width="32" height="32" rx="16" fill="url(#paint0_linear_605_1450)"/>
<path d="M16 19.912C18.1884 19.912 20.0903 18.669 21.0556 16.8419L23.663 16.4409C22.6735 19.7792 19.6171 22.2115 16 22.2115C13.2393 22.2115 10.8053 20.7946 9.36747 18.6395L11.9749 18.2385C13.0097 19.2733 14.4312 19.912 16 19.912Z" fill="#FAFAFA"/>
<path d="M10.2695 14.1057C10.2695 15.1259 10.5292 16.0846 10.9852 16.9177L8.63626 17.2789C8.22665 16.3044 8 15.2319 8 14.1057C8 9.62906 11.5817 6 16 6C17.6465 6 19.1769 6.504 20.449 7.36804L23.1143 6.95812L23.3818 8.74352L22.1584 8.93167C22.9212 9.86265 23.4822 10.9694 23.7736 12.183L21.517 12.5301C20.8393 10.089 18.6259 8.2995 16 8.2995C12.8351 8.2995 10.2695 10.899 10.2695 14.1057Z" fill="#FAFAFA"/>
<path d="M21.729 13.9705C21.73 14.0155 21.7305 14.0605 21.7305 14.1057C21.7305 14.5092 21.6899 14.903 21.6126 15.2832L23.9599 14.9222C23.9864 14.6537 24 14.3813 24 14.1057C24 13.9438 23.9953 13.783 23.9861 13.6234L21.729 13.9705Z" fill="#FAFAFA"/>
<path d="M16.012 23.7005C14.1141 23.7005 12.2646 22.8986 11.0408 21.6749L9.44664 23.3116C11.0976 24.9624 13.5208 26 16.012 26C18.4546 26 21.0457 25.0655 22.6872 23.276L21.0248 21.7105C19.8966 22.9404 17.9587 23.7005 16.012 23.7005Z" fill="#FAFAFA"/>
<defs>
<linearGradient id="paint0_linear_605_1450" x1="6.5" y1="3.5" x2="27" y2="32" gradientUnits="userSpaceOnUse">
<stop stop-color="#FFCF27"/>
<stop offset="1" stop-color="#FF7A00"/>
</linearGradient>
</defs>
</svg>
