<svg width="18" height="18" viewBox="0 0 18 18" fill="none" xmlns="http://www.w3.org/2000/svg">
<path d="M8.99984 17.3316C8.7419 17.3316 8.52861 17.2472 8.35996 17.0783C8.19131 16.9095 8.10698 16.696 8.10698 16.4378V9.88353H1.55936C1.30142 9.88353 1.08813 9.79912 0.91948 9.63029C0.750829 9.46147 0.666504 9.24796 0.666504 8.98976C0.666504 8.73156 0.750829 8.51805 0.91948 8.34923C1.08813 8.18041 1.30142 8.096 1.55936 8.096H8.10698V1.54171C8.10698 1.28352 8.19131 1.07001 8.35996 0.901183C8.52861 0.732361 8.7419 0.647949 8.99984 0.647949C9.25777 0.647949 9.47107 0.732361 9.63972 0.901183C9.80837 1.07001 9.8927 1.28352 9.8927 1.54171V8.096H16.4403C16.6983 8.096 16.9115 8.18041 17.0802 8.34923C17.2488 8.51805 17.3332 8.73156 17.3332 8.98976C17.3332 9.24796 17.2488 9.46147 17.0802 9.63029C16.9115 9.79912 16.6983 9.88353 16.4403 9.88353H9.8927V16.4378C9.8927 16.696 9.80837 16.9095 9.63972 17.0783C9.47107 17.2472 9.25777 17.3316 8.99984 17.3316Z" fill="#1E1B21"/>
</svg>
