<svg width="18" height="18" viewBox="0 0 18 18" fill="none" xmlns="http://www.w3.org/2000/svg">
<path d="M8.99935 17.3316C8.74141 17.3316 8.52812 17.2472 8.35947 17.0784C8.19082 16.9096 8.10649 16.6961 8.10649 16.4379V9.88359H1.55887C1.30094 9.88359 1.08764 9.79918 0.918992 9.63035C0.750341 9.46153 0.666016 9.24802 0.666016 8.98982C0.666016 8.73162 0.750341 8.51811 0.918992 8.34929C1.08764 8.18047 1.30094 8.09606 1.55887 8.09606H8.10649V1.54178C8.10649 1.28358 8.19082 1.07007 8.35947 0.901244C8.52812 0.732422 8.74141 0.64801 8.99935 0.64801C9.25729 0.64801 9.47058 0.732422 9.63923 0.901244C9.80788 1.07007 9.89221 1.28358 9.89221 1.54178V8.09606H16.4398C16.6978 8.09606 16.9111 8.18047 17.0797 8.34929C17.2484 8.51811 17.3327 8.73162 17.3327 8.98982C17.3327 9.24802 17.2484 9.46153 17.0797 9.63035C16.9111 9.79918 16.6978 9.88359 16.4398 9.88359H9.89221V16.4379C9.89221 16.6961 9.80788 16.9096 9.63923 17.0784C9.47058 17.2472 9.25729 17.3316 8.99935 17.3316Z" fill="#FAFAFA"/>
</svg>
