<svg width="20" height="17" viewBox="0 0 20 17" fill="none" xmlns="http://www.w3.org/2000/svg">
<path d="M6.38021 16.8332C5.96354 16.8332 5.59896 16.6769 5.28646 16.3644C4.97396 16.0519 4.81771 15.6873 4.81771 15.2707V13.4478C4.81771 13.2221 4.89149 13.0354 5.03906 12.8879C5.18663 12.7403 5.37326 12.6665 5.59896 12.6665H8.04688V9.35921C7.38715 9.4113 6.72743 9.32015 6.06771 9.08578C5.40799 8.8514 4.81771 8.48248 4.29688 7.979V6.46859H2.99479L0.3125 3.7863C0.104167 3.57796 0 3.34359 0 3.08317C0 2.82275 0.104167 2.61442 0.3125 2.45817C0.868056 2.0415 1.51476 1.70296 2.2526 1.44255C2.99045 1.18213 3.73264 1.05192 4.47917 1.05192C5 1.05192 5.59462 1.13439 6.26302 1.29932C6.93142 1.46425 7.52604 1.729 8.04688 2.09359V0.947754C8.04688 0.722059 8.12066 0.535428 8.26823 0.387858C8.4158 0.240289 8.60243 0.166504 8.82813 0.166504H19.1146C19.3403 0.166504 19.5269 0.240289 19.6745 0.387858C19.8221 0.535428 19.8958 0.722059 19.8958 0.947754V14.0988C19.8958 14.8627 19.6311 15.5094 19.1016 16.0389C18.5721 16.5684 17.9254 16.8332 17.1615 16.8332H6.38021ZM9.60938 12.6665H15.2083C15.434 12.6665 15.6207 12.7403 15.7682 12.8879C15.9158 13.0354 15.9896 13.2221 15.9896 13.4478V14.0988C15.9896 14.446 16.0981 14.7281 16.3151 14.9452C16.5321 15.1622 16.8142 15.2707 17.1615 15.2707C17.5087 15.2707 17.7908 15.1622 18.0078 14.9452C18.2248 14.7281 18.3333 14.446 18.3333 14.0988V1.729H9.60938V3.21338L15.5469 9.15088C15.651 9.25505 15.7335 9.35921 15.7943 9.46338C15.855 9.56755 15.8854 9.68907 15.8854 9.82796C15.8854 10.0537 15.8116 10.2403 15.6641 10.3879C15.5165 10.5354 15.3299 10.6092 15.1042 10.6092C14.9653 10.6092 14.8438 10.5788 14.7396 10.5181C14.6354 10.4573 14.5313 10.3748 14.4271 10.2707L11.4844 7.32796L11.0417 7.8488C10.816 8.10921 10.5903 8.30887 10.3646 8.44775C10.1389 8.58664 9.88715 8.71685 9.60938 8.83838V12.6665ZM3.69792 4.90609H5.85938V7.2238C6.15451 7.41477 6.44531 7.558 6.73177 7.65348C7.01823 7.74897 7.30903 7.79671 7.60417 7.79671C8.0382 7.79671 8.4809 7.67952 8.93229 7.44515C9.38368 7.21077 9.71354 6.97206 9.92188 6.729L10.3646 6.20817L8.56771 4.4113C8.01215 3.85574 7.38715 3.41737 6.69271 3.09619C5.99826 2.77501 5.26042 2.61442 4.47917 2.61442C4.01042 2.61442 3.58507 2.67084 3.20313 2.78369C2.82118 2.89654 2.43056 3.04845 2.03125 3.23942L3.69792 4.90609ZM6.38021 15.2707H14.7917C14.6875 15.1665 14.6007 15.0233 14.5313 14.841C14.4618 14.6587 14.4271 14.4547 14.4271 14.229H6.38021V15.2707Z" fill="#FAFAFA"/>
</svg>
