<svg width="31" height="28" viewBox="0 0 31 28" fill="none" xmlns="http://www.w3.org/2000/svg">
<path d="M7.42609 26C10.4228 26 12.8522 23.6122 12.8522 20.6667V20.4C12.8522 20.0266 12.8522 19.8399 12.7782 19.6973C12.7132 19.5719 12.6095 19.4699 12.4818 19.406C12.3367 19.3333 12.1468 19.3333 11.767 19.3333H3.08522C2.70536 19.3333 2.51542 19.3333 2.37034 19.406C2.24271 19.4699 2.13895 19.5719 2.07393 19.6973C2 19.8399 2 20.0266 2 20.4V20.6667C2 23.6122 4.42934 26 7.42609 26Z" fill="#FFCF27"/>
<path d="M23.7043 23.3333C26.7011 23.3333 29.1304 20.9455 29.1304 18V17.7333C29.1304 17.36 29.1304 17.1733 29.0565 17.0307C28.9915 16.9052 28.8877 16.8032 28.7601 16.7393C28.615 16.6667 28.4251 16.6667 28.0452 16.6667H19.3635C18.9836 16.6667 18.7937 16.6667 18.6486 16.7393C18.521 16.8032 18.4172 16.9052 18.3522 17.0307C18.2783 17.1733 18.2783 17.36 18.2783 17.7333V18C18.2783 20.9455 20.7076 23.3333 23.7043 23.3333Z" fill="#FFCF27"/>
<path d="M2 20.6667V20.4664C2 20.0444 2 19.8334 2.03284 19.6279C2.06199 19.4454 2.11037 19.2663 2.17718 19.0936C2.25243 18.8991 2.35894 18.7159 2.57194 18.3495L7.42609 10M2 20.6667C2 23.6122 4.42934 26 7.42609 26C10.4228 26 12.8522 23.6122 12.8522 20.6667M2 20.6667V20.4C2 20.0266 2 19.8399 2.07393 19.6973C2.13895 19.5719 2.24271 19.4699 2.37034 19.406C2.51542 19.3333 2.70536 19.3333 3.08522 19.3333H11.767C12.1468 19.3333 12.3367 19.3333 12.4818 19.406C12.6095 19.4699 12.7132 19.5719 12.7782 19.6973C12.8522 19.8399 12.8522 20.0266 12.8522 20.4V20.6667M7.42609 10L12.2802 18.3495C12.4932 18.7159 12.5997 18.8991 12.675 19.0936C12.7418 19.2663 12.7902 19.4454 12.8193 19.6279C12.8522 19.8334 12.8522 20.0444 12.8522 20.4664V20.6667M7.42609 10L23.7043 7.33333M18.2783 18V17.7997C18.2783 17.3778 18.2783 17.1668 18.3111 16.9612C18.3403 16.7787 18.3886 16.5996 18.4554 16.427C18.5307 16.2325 18.6372 16.0493 18.8502 15.6829L23.7043 7.33333M18.2783 18C18.2783 20.9455 20.7076 23.3333 23.7043 23.3333C26.7011 23.3333 29.1304 20.9455 29.1304 18M18.2783 18V17.7333C18.2783 17.36 18.2783 17.1733 18.3522 17.0307C18.4172 16.9052 18.521 16.8032 18.6486 16.7393C18.7937 16.6667 18.9836 16.6667 19.3635 16.6667H28.0452C28.4251 16.6667 28.615 16.6667 28.7601 16.7393C28.8877 16.8032 28.9915 16.9052 29.0565 17.0307C29.1304 17.1733 29.1304 17.36 29.1304 17.7333V18M23.7043 7.33333L28.5585 15.6829C28.7715 16.0493 28.878 16.2325 28.9533 16.427C29.0201 16.5996 29.0684 16.7787 29.0976 16.9612C29.1304 17.1668 29.1304 17.3778 29.1304 17.7997V18M15.5652 2V8.66667" stroke="#1E1B21" stroke-width="2.5" stroke-linecap="round" stroke-linejoin="round"/>
</svg>
