<svg width="20" height="21" viewBox="0 0 20 21" fill="none" xmlns="http://www.w3.org/2000/svg">
<path d="M7.7 20.5L7.2 17.35C6.88333 17.2333 6.55 17.075 6.2 16.875C5.85 16.675 5.54167 16.4667 5.275 16.25L2.325 17.6L0 13.5L2.7 11.525C2.66667 11.375 2.64583 11.2042 2.6375 11.0125C2.62917 10.8208 2.625 10.65 2.625 10.5C2.625 10.35 2.62917 10.1792 2.6375 9.9875C2.64583 9.79583 2.66667 9.625 2.7 9.475L0 7.5L2.325 3.4L5.275 4.75C5.54167 4.53333 5.85 4.325 6.2 4.125C6.55 3.925 6.88333 3.775 7.2 3.675L7.7 0.5H12.3L12.8 3.65C13.1167 3.76667 13.4542 3.92083 13.8125 4.1125C14.1708 4.30417 14.475 4.51667 14.725 4.75L17.675 3.4L20 7.5L17.3 9.425C17.3333 9.59167 17.3542 9.77083 17.3625 9.9625C17.3708 10.1542 17.375 10.3333 17.375 10.5C17.375 10.6667 17.3708 10.8417 17.3625 11.025C17.3542 11.2083 17.3333 11.3833 17.3 11.55L20 13.5L17.675 17.6L14.725 16.25C14.4583 16.4667 14.1542 16.6792 13.8125 16.8875C13.4708 17.0958 13.1333 17.25 12.8 17.35L12.3 20.5H7.7ZM10 13.75C10.9 13.75 11.6667 13.4333 12.3 12.8C12.9333 12.1667 13.25 11.4 13.25 10.5C13.25 9.6 12.9333 8.83333 12.3 8.2C11.6667 7.56667 10.9 7.25 10 7.25C9.1 7.25 8.33333 7.56667 7.7 8.2C7.06667 8.83333 6.75 9.6 6.75 10.5C6.75 11.4 7.06667 12.1667 7.7 12.8C8.33333 13.4333 9.1 13.75 10 13.75ZM10 12.25C9.51667 12.25 9.10417 12.0792 8.7625 11.7375C8.42083 11.3958 8.25 10.9833 8.25 10.5C8.25 10.0167 8.42083 9.60417 8.7625 9.2625C9.10417 8.92083 9.51667 8.75 10 8.75C10.4833 8.75 10.8958 8.92083 11.2375 9.2625C11.5792 9.60417 11.75 10.0167 11.75 10.5C11.75 10.9833 11.5792 11.3958 11.2375 11.7375C10.8958 12.0792 10.4833 12.25 10 12.25ZM8.9 19H11.1L11.45 16.2C12 16.0667 12.5208 15.8583 13.0125 15.575C13.5042 15.2917 13.95 14.95 14.35 14.55L17 15.7L18 13.9L15.65 12.175C15.7167 11.8917 15.7708 11.6125 15.8125 11.3375C15.8542 11.0625 15.875 10.7833 15.875 10.5C15.875 10.2167 15.8583 9.9375 15.825 9.6625C15.7917 9.3875 15.7333 9.10833 15.65 8.825L18 7.1L17 5.3L14.35 6.45C13.9667 6.01667 13.5333 5.65417 13.05 5.3625C12.5667 5.07083 12.0333 4.88333 11.45 4.8L11.1 2H8.9L8.55 4.8C7.98333 4.91667 7.45417 5.11667 6.9625 5.4C6.47083 5.68333 6.03333 6.03333 5.65 6.45L3 5.3L2 7.1L4.35 8.825C4.28333 9.10833 4.22917 9.3875 4.1875 9.6625C4.14583 9.9375 4.125 10.2167 4.125 10.5C4.125 10.7833 4.14583 11.0625 4.1875 11.3375C4.22917 11.6125 4.28333 11.8917 4.35 12.175L2 13.9L3 15.7L5.65 14.55C6.05 14.95 6.49583 15.2917 6.9875 15.575C7.47917 15.8583 8 16.0667 8.55 16.2L8.9 19Z" fill="#FAFAFA"/>
</svg>
