<svg width="24" height="27" viewBox="0 0 24 27" fill="none" xmlns="http://www.w3.org/2000/svg">
<path d="M2 8.13333C2 5.98647 2 4.91303 2.41781 4.09304C2.78532 3.37175 3.37175 2.78532 4.09304 2.41781C4.91303 2 5.98647 2 8.13333 2H16.3111C18.458 2 19.5314 2 20.3514 2.41781C21.0727 2.78532 21.6591 3.37175 22.0266 4.09304C22.4444 4.91303 22.4444 5.98647 22.4444 8.13333V25L18.9306 22.4444L15.7361 25L12.2222 22.4444L8.70833 25L5.51389 22.4444L2 25V8.13333Z" fill="#FFCF27"/>
<path d="M8.38889 11.5833L10.9444 14.1389L16.6944 8.38889M22.4444 25V8.13333C22.4444 5.98647 22.4444 4.91303 22.0266 4.09304C21.6591 3.37175 21.0727 2.78532 20.3514 2.41781C19.5314 2 18.458 2 16.3111 2H8.13333C5.98647 2 4.91303 2 4.09304 2.41781C3.37175 2.78532 2.78532 3.37175 2.41781 4.09304C2 4.91303 2 5.98647 2 8.13333V25L5.51389 22.4444L8.70833 25L12.2222 22.4444L15.7361 25L18.9306 22.4444L22.4444 25Z" stroke="#1E1B21" stroke-width="2.5" stroke-linecap="round" stroke-linejoin="round"/>
</svg>
