<svg width="21" height="22" viewBox="0 0 21 22" fill="none" xmlns="http://www.w3.org/2000/svg">
<path d="M4.43662 14.8921L3.1243 15.7065C3.05473 15.7496 2.97447 15.7725 2.8926 15.7722C2.85905 15.7765 2.82537 15.7765 2.79198 15.7722C2.67905 15.7451 2.58063 15.6763 2.51633 15.5796L0.0667114 11.6911C0.0049057 11.5925 -0.0148678 11.4733 0.0113487 11.3599C0.0375652 11.2466 0.107866 11.1482 0.206583 11.087L1.5189 10.2725V10.2724C1.61777 10.2098 1.73743 10.1893 1.85138 10.2155C1.96591 10.2414 2.06536 10.3126 2.12703 10.4125L2.3851 10.8154L4.25294 9.63752L3.99487 9.23464C3.93321 9.13597 3.91329 9.01678 3.93951 8.90345C3.96572 8.78997 4.03603 8.69174 4.13489 8.63031L12.8618 3.17863C12.9484 2.76723 13.2019 2.41037 13.5616 2.19339L16.9781 0.0696956C17.0771 0.00650498 17.1972 -0.0141682 17.3114 0.012225C17.4258 0.0384689 17.5248 0.109725 17.5862 0.209859L20.5257 4.87334C20.5884 4.97216 20.6089 5.09194 20.5825 5.20615C20.5566 5.31846 20.4875 5.41595 20.3901 5.47753L16.9518 7.61883C16.7077 7.77102 16.4257 7.85136 16.1382 7.85092C16.0174 7.84931 15.8971 7.83465 15.7795 7.80708L12.7174 9.87831C12.7719 10.0532 12.8043 10.2341 12.8136 10.417L15.7795 20.1467H18.9771C19.2188 20.1467 19.4146 20.3427 19.4146 20.5845C19.4146 20.8264 19.2188 21.0224 18.9771 21.0224H2.28892C2.04726 21.0224 1.85143 20.8264 1.85143 20.5845C1.85143 20.3427 2.04726 20.1467 2.28892 20.1467H5.43411L7.66505 12.8604L7.05268 13.2413C6.98297 13.2845 6.9027 13.3072 6.82083 13.3069C6.66895 13.3097 6.52658 13.2335 6.44457 13.1055L6.19089 12.6982L4.31862 13.863L4.5723 14.2703C4.64011 14.3697 4.66399 14.4928 4.63836 14.6105C4.61272 14.7281 4.53979 14.83 4.43667 14.8921L4.43662 14.8921ZM1.61075 11.2313L1.04641 11.5816L3.03233 14.73L3.59228 14.3797L3.3386 13.9724L1.86884 11.6384L1.61075 11.2313ZM17.0613 1.04598L15.1977 2.19322L17.6736 6.13419L19.5459 4.9695L17.0613 1.04598ZM16.4838 6.87449L16.9213 6.59856L14.4584 2.6925L14.021 2.96842C13.8726 3.05815 13.768 3.20564 13.7323 3.37558C13.692 3.54301 13.7203 3.71969 13.8111 3.86599L15.5607 6.68596V6.68611C15.6534 6.83243 15.8002 6.93623 15.9691 6.97479C16.1378 7.0132 16.315 6.98344 16.462 6.89181L16.4838 6.87449ZM10.6046 11.827C10.9527 11.827 11.2865 11.6886 11.5326 11.4423C11.7786 11.1958 11.9169 10.8617 11.9169 10.5133C11.9169 10.165 11.7786 9.83082 11.5326 9.58437C11.2865 9.33806 10.9527 9.19966 10.6046 9.19966C10.2566 9.19966 9.92276 9.33806 9.67672 9.58437C9.43052 9.83083 9.29225 10.165 9.29225 10.5133C9.29225 10.8617 9.43051 11.1958 9.67672 11.4423C9.92278 11.6886 10.2566 11.827 10.6046 11.827ZM12.3238 11.8664C12.0049 12.2733 11.5524 12.554 11.0465 12.659V20.1468H14.874L12.3238 11.8664ZM6.35723 20.147H10.1675V12.6591C9.72749 12.5692 9.32588 12.3459 9.01696 12.0197L8.80269 12.1511L6.35723 20.147ZM6.95654 12.265L8.05458 11.5776L8.41327 10.4127H8.41313C8.43656 9.81936 8.69976 9.26091 9.14251 8.86565C9.58514 8.47023 10.1692 8.27187 10.7608 8.31586C11.3524 8.35985 11.9007 8.64252 12.2801 9.09906L14.9441 7.30817L14.6423 6.82655L13.0587 4.30876L12.9581 4.15115L4.97505 9.1209L5.23312 9.52821L6.70289 11.8622L6.95654 12.265ZM5.72304 11.9498L4.71697 10.3602L2.84913 11.525L3.85065 13.1407L5.72304 11.9498Z" fill="#FAFAFA"/>
</svg>
