<svg width="46" height="33" viewBox="0 0 46 33" fill="none" xmlns="http://www.w3.org/2000/svg">
<path d="M11.1909 32.5C8.27212 32.5 5.76061 31.4651 3.65636 29.3952C1.55212 27.3253 0.5 24.8547 0.5 21.9836C0.5 19.3795 1.34 17.0842 3.02 15.0978C4.7 13.1114 6.86364 11.9178 9.51091 11.5172C10.1897 8.27882 11.7848 5.63302 14.2964 3.57981C16.8079 1.5266 19.7097 0.5 23.0018 0.5C26.837 0.5 30.0527 1.86046 32.6491 4.58138C35.2455 7.3023 36.5436 10.5657 36.5436 14.3717V15.5736C38.9873 15.5068 41.0576 16.283 42.7545 17.9022C44.4515 19.5214 45.3 21.5662 45.3 24.0368C45.3 26.3404 44.4515 28.3268 42.7545 29.9961C41.0576 31.6654 39.0382 32.5 36.6964 32.5H24.4273C23.6127 32.5 22.9 32.1995 22.2891 31.5986C21.6782 30.9977 21.3727 30.2966 21.3727 29.4953V16.5751L18.2164 19.68C17.9109 19.9804 17.5545 20.1223 17.1473 20.1056C16.74 20.0889 16.3836 19.9304 16.0782 19.6299C15.7727 19.3294 15.62 18.9705 15.62 18.5532C15.62 18.1359 15.7727 17.777 16.0782 17.4765L21.8309 11.8177C22.0006 11.6508 22.1703 11.5339 22.34 11.4671C22.5097 11.4004 22.6964 11.367 22.9 11.367C23.1036 11.367 23.2903 11.4004 23.46 11.4671C23.6297 11.5339 23.7994 11.6508 23.9691 11.8177L29.7727 17.5266C30.0782 17.8271 30.2309 18.1776 30.2309 18.5782C30.2309 18.9789 30.0782 19.3294 29.7727 19.6299C29.4673 19.9304 29.1024 20.0806 28.6782 20.0806C28.2539 20.0806 27.8891 19.9304 27.5836 19.6299L24.4273 16.5751V29.4953H36.6964C38.2236 29.4953 39.5303 28.9611 40.6164 27.8928C41.7024 26.8245 42.2455 25.5391 42.2455 24.0368C42.2455 22.5344 41.7024 21.2491 40.6164 20.1808C39.5303 19.1124 38.2236 18.5782 36.6964 18.5782H33.4891V14.3717C33.4891 11.4004 32.4624 8.84637 30.4091 6.7097C28.3558 4.57303 25.8188 3.50469 22.7982 3.50469C19.7776 3.50469 17.2321 4.57303 15.1618 6.7097C13.0915 8.84637 12.0564 11.4004 12.0564 14.3717H11.0891C8.98485 14.3717 7.20303 15.0978 5.74364 16.5501C4.28424 18.0023 3.55455 19.7968 3.55455 21.9335C3.55455 24.0034 4.30121 25.7812 5.79455 27.2668C7.28788 28.7525 9.08667 29.4953 11.1909 29.4953H16.7909C17.2321 29.4953 17.597 29.6372 17.8855 29.921C18.1739 30.2047 18.3182 30.5636 18.3182 30.9977C18.3182 31.4317 18.1739 31.7906 17.8855 32.0743C17.597 32.3581 17.2321 32.5 16.7909 32.5H11.1909Z" fill="#FAFAFA"/>
</svg>
