<svg width="18" height="18" viewBox="0 0 18 18" fill="none" xmlns="http://www.w3.org/2000/svg">
<path d="M12.3333 6.03378V3.11469C12.3333 2.42087 12.3333 2.07396 12.1873 1.86077C12.0598 1.6745 11.8622 1.54797 11.6398 1.51008C11.3852 1.46672 11.0706 1.6121 10.4413 1.90285L3.04918 5.31805C2.48792 5.57735 2.20729 5.70701 2.00175 5.90808C1.82005 6.08585 1.68135 6.30285 1.59625 6.54249C1.5 6.81356 1.5 7.12296 1.5 7.74174V11.873M12.75 11.456H12.7583M1.5 8.70316L1.5 14.2088C1.5 15.1431 1.5 15.6103 1.68166 15.9672C1.84144 16.2811 2.09641 16.5363 2.41002 16.6963C2.76654 16.8781 3.23325 16.8781 4.16667 16.8781H13.8333C14.7668 16.8781 15.2335 16.8781 15.59 16.6963C15.9036 16.5363 16.1586 16.2811 16.3183 15.9672C16.5 15.6103 16.5 15.1431 16.5 14.2088V8.70316C16.5 7.76879 16.5 7.30161 16.3183 6.94472C16.1586 6.6308 15.9036 6.37557 15.59 6.21562C15.2335 6.03378 14.7668 6.03378 13.8333 6.03378L4.16667 6.03378C3.23325 6.03378 2.76654 6.03378 2.41002 6.21562C2.09641 6.37557 1.84144 6.6308 1.68166 6.94472C1.5 7.30161 1.5 7.76879 1.5 8.70316ZM13.1667 11.456C13.1667 11.6863 12.9801 11.873 12.75 11.873C12.5199 11.873 12.3333 11.6863 12.3333 11.456C12.3333 11.2256 12.5199 11.0389 12.75 11.0389C12.9801 11.0389 13.1667 11.2256 13.1667 11.456Z" stroke="#1E1B21" strokeWidth="1.3" strokeLinecap="round" strokeLinejoin="round"/>
</svg>
